<?xml version="1.0" encoding="UTF-8" standalone="no"?>
<!-- Created with Inkscape (http://www.inkscape.org/) -->

<svg
   xmlns:dc="http://purl.org/dc/elements/1.1/"
   xmlns:cc="http://creativecommons.org/ns#"
   xmlns:rdf="http://www.w3.org/1999/02/22-rdf-syntax-ns#"
   xmlns:svg="http://www.w3.org/2000/svg"
   xmlns="http://www.w3.org/2000/svg"
   xmlns:sodipodi="http://sodipodi.sourceforge.net/DTD/sodipodi-0.dtd"
   xmlns:inkscape="http://www.inkscape.org/namespaces/inkscape"
   version="1.1"
   id="svg2"
   width="800"
   height="310"
   viewBox="0 0 799.99999 309.99999"
   sodipodi:docname="82443.Angel-Links.svg"
   inkscape:version="0.92.4 5da689c313, 2019-01-14"
   inkscape:export-xdpi="182.58563"
   inkscape:export-ydpi="182.58563">
  <metadata
     id="metadata8">
    <rdf:RDF>
      <cc:Work
         rdf:about="">
        <dc:format>image/svg+xml</dc:format>
        <dc:type
           rdf:resource="http://purl.org/dc/dcmitype/StillImage" />
        <dc:title></dc:title>
      </cc:Work>
    </rdf:RDF>
  </metadata>
  <defs
     id="defs6" />
  <sodipodi:namedview
     pagecolor="#ffffff"
     bordercolor="#666666"
     borderopacity="1"
     objecttolerance="10"
     gridtolerance="10"
     guidetolerance="10"
     inkscape:pageopacity="0"
     inkscape:pageshadow="2"
     inkscape:window-width="1920"
     inkscape:window-height="1141"
     id="namedview4"
     showgrid="true"
     inkscape:snap-others="true"
     inkscape:snap-nodes="false"
     inkscape:zoom="1.0978763"
     inkscape:cx="108.02424"
     inkscape:cy="76.152202"
     inkscape:window-x="0"
     inkscape:window-y="33"
     inkscape:window-maximized="1"
     inkscape:current-layer="g1060"
     inkscape:snap-bbox="true"
     inkscape:pagecheckerboard="true">
    <inkscape:grid
       type="xygrid"
       id="grid821" />
  </sodipodi:namedview>
  <g
     inkscape:groupmode="layer"
     id="layer2"
     inkscape:label="Layer 2"
     style="display:inline"
     transform="translate(-0.87867877,160.26013)">
    <g
       id="g1051"
       transform="matrix(0.98067973,0,0,0.98067973,161.89086,0.12057677)">
      <g
         id="g1060"
         transform="matrix(0.97109936,0,0,0.97109936,7.0429707,-0.15856947)">
        <path
           style="fill:#f21e8c;fill-opacity:1;stroke:#ffffff;stroke-width:3.67516784;stroke-linecap:butt;stroke-linejoin:miter;stroke-miterlimit:4;stroke-dasharray:none;stroke-opacity:1;paint-order:normal"
           d="m 365.31853,-135.90628 c -37.98153,-0.2113 -74.23124,19.0116 -75.30671,53.24226 0.71422,40.084726 37.50238,41.105633 37.50238,41.105633 -79.1174,-102.049143 127.6,-118.536453 109.8812,-12.120739 -4.40006,26.425822 -25.54648,49.6176011 -58.62528,54.3665394 l 28.9849,-67.3016844 c 5.89523,-11.790465 17.19387,-15.720013 17.19387,-15.720013 H 389.413 L 333.57257,47.195933 c 0,0 13.27287,-12.521222 20.96002,-12.935146 56.20249,-3.026287 97.01504,-44.204091 97.92732,-88.102794 1.1767,-56.621583 -44.09568,-81.824813 -87.14138,-82.064273 z m -228.14879,46.127136 c 22.66687,16.051179 17.59202,23.058201 18.82667,28.635297 l -1.06468,0.08344 H 54.19174 l -7.468695,12.041285 H 84.817363 L 58.092941,7.0675868 C 55.718473,11.652767 53.437262,12.840271 48.729263,12.963088 L 12.506092,13.046515 4.9579424,26.120703 H 127.14262 l 6.41592,-11.111668 h -6.35236 c 4.92885,-10.2591268 17.58215,-12.3366488 28.53598,-16.089479 15.40428,-6.4619314 28.29663,-17.707992 38.14994,-31.086457 1.35424,1.250688 6.01296,6.173574 7.52828,16.808537 3.11347,21.8511473 25.64607,12.1736007 24.893,0 -1.02993,-16.648985 -27.31824,-17.364094 -32.02401,-17.360742 5.08175,-6.988533 9.33394,-14.540989 12.68883,-22.290879 3.37397,2.88747 8.26844,8.020258 9.18092,14.18655 3.99199,26.976106 29.14071,12.976435 26.20004,-0.734952 -3.03447,-14.148685 -25.01546,-15.894908 -34.33216,-16.006049 4.12416,-10.175276 6.72985,-20.608008 7.57994,-30.474661 -16.81576,24.601591 -31.11528,68.591531 -96.45742,60.905622 l 7.65144,42.14251 H 84.876955 c 7.873944,-17.5977344 20.477445,-45.753642 23.621735,-52.793348 0,0 4.49931,-10.198431 16.81251,-10.265482 l 23.48269,0.655497 7.82226,-12.033339 c 8.83183,20.195718 27.06113,8.194199 26.95484,-1.29113 -0.28896,-25.790153 -46.40125,-29.060377 -46.40125,-29.060377 z m 115.50655,19.315317 c 7.0006,4.748937 8.17333,7.109309 8.51352,11.258661 0.80591,9.829637 13.48772,7.821844 13.47145,0.738925 -0.024,-10.071078 -21.98497,-11.997586 -21.98497,-11.997586 z m -13.71379,3.809829 c 0,0 7.71716,4.490365 9.04586,11.707576 2.27403,12.352124 14.40177,6.709731 13.51118,-0.123155 -1.48389,-11.385133 -22.55704,-11.584424 -22.55704,-11.584424 z m 138.81443,5.188359 -23.91174,0.0596 c 0,0 -24.75732,63.0030952 -34.04216,77.928685 -9.28482,14.925588 -35.31738,25.127392 -35.31738,25.127392 0,0 46.54737,10.383325 64.40592,-32.9976019 28.86536,-70.1180721 28.86536,-70.1180651 28.86536,-70.1180651 z M 268.98824,-42.996508 C 225.91313,14.784352 198.93308,2.6277287 182.49042,3.0909045 l 3.47214,37.6334825 c 0,0 4.68127,-7.767485 15.4022,-10.190001 61.53679,-13.90495 67.62348,-73.530893 67.62348,-73.530894 z m 1.70032,13.392007 -4.74741,10.805771 h 19.3789 l -6.71387,17.1144349 C 272.94517,12.749514 259.64048,11.028378 250.3006,11.028378 l -6.4477,11.071944 66.95607,0.174805 7.69909,-11.759223 -23.09335,0.162885 c 12.0989,-30.172038 9.01587,-29.638548 28.23405,-29.147775 l 5.99481,-11.135506 z m -23.74489,65.664926 c 0,0 -17.13069,42.252301 -28.82202,66.157545 -7.69198,15.72781 -28.44625,30.34234 -47.16004,30.45877 -2.49719,0.0163 -42.18672,-0.32512 -43.17144,-36.02455 -0.40251,-14.592186 13.51142,-37.629281 42.57554,-35.313419 -57.66507,-17.600569 -63.82592,26.823582 -62.71718,35.28958 9.05013,69.104409 111.9163,59.199499 135.69189,6.570869 l 22.31075,-49.384744 c 0.90815,-2.01029 1.87016,-3.74857 2.85239,-5.323437 2.15254,1.374129 8.31796,6.385931 8.70423,19.212022 0.68737,22.82521 28.35507,17.116601 25.47698,0 C 299.42309,48.30515 273.94783,47.875909 268.8055,47.986499 275.63036,37.391895 283.58687,36.425821 285.88813,36.382214 Z m 38.94446,0.321789 0.68728,0.004 c 0,0 -0.26818,-0.01197 -0.68728,-0.004 z m -80.97176,1.720184 c -20.27405,45.369688 -22.42635,56.925898 -38.86901,58.315416 l 37.20443,0.32973 c 14.24683,-34.71637 19.53753,-58.481386 32.96555,-58.645146 z m 128.79923,4.358063 c 0,0 -17.13495,73.181099 -85.45299,66.928239 l -2.55049,35.20218 c 0,0 4.66057,-9.13911 15.74783,-10.42437 42.95165,-4.97902 65.27032,-39.888008 72.25565,-91.706049 z m 52.74965,7.357456 -36.35428,0.162925 c 0,0 -2.94794,27.346238 -36.35425,53.711048 36.35392,1.1463 50.93013,-31.60689 50.93013,-31.60689 h 10.96866 c 0,0 -8.51332,44.70889 -62.06168,64.03215 64.84755,4.58517 74.83757,-33.89994 86.79179,-61.247271 8.84286,-13.591783 15.2274,-15.06452 15.2274,-15.06452 h -42.24977 z m 32.25842,9.331896 -8.8393,10.89714 30.98715,-0.254254 c -21.1876,37.121351 -40.97757,54.203431 -78.31405,69.105301 51.25576,4.91268 73.85422,-22.59529 78.76693,-28.81804 3.27512,19.65075 8.43332,23.82678 11.5447,28.57569 l 26.1166,-25.30217 -6.87676,-0.16292 c -6.81659,-0.16232 -16.70846,-5.98448 -14.57189,-19.406684 1.53073,-9.616339 18.83014,-33.487808 27.83676,-34.634105 z"
           id="path1387"
           inkscape:connector-curvature="0"
           sodipodi:nodetypes="sccscccccssscccccccccccccccsscccscccccccccsccscccssccccscscccccsccccccccccccccscscscccssccccccccccccccscccccccccccccccccccccc" />
        <path
           style="display:inline;fill:#ffffff;stroke:#000000;stroke-width:0.42001918;stroke-linecap:butt;stroke-linejoin:miter;stroke-miterlimit:4;stroke-dasharray:none;stroke-opacity:1"
           d="m 216.53703,-126.17622 c 3.04074,-1.73661 4.5757,-3.35068 5.7478,-6.14951 1.12591,-2.68867 2.97277,-6.62189 4.87013,-8.87338 2.30978,-2.74084 4.5741,-4.8683 7.68841,-5.20985 8.36375,-0.91723 14.09825,-3.60605 30.53015,-10.26737 0.83909,6.93047 -19.68776,14.87382 -22.42148,15.88163 5.10438,-1.48029 7.34915,-2.38276 14.22471,-6.25644 -1.05553,8.93633 -19.96009,12.5368 -19.96009,12.5368 8.25091,-1.61487 10.16203,-2.86598 13.122,-3.81502 -4.0825,2.83566 -9.38444,6.67307 -13.81422,8.38255 -4.56124,1.7602 -14.20253,3.80627 -14.20253,3.80627 z"
           id="path2564"
           inkscape:connector-curvature="0"
           sodipodi:nodetypes="cssscccccscc" />
        <path
           style="display:inline;fill:#edc139;fill-opacity:1;stroke:#000000;stroke-width:0.84003836;stroke-linecap:butt;stroke-linejoin:miter;stroke-miterlimit:4;stroke-dasharray:none;stroke-opacity:1"
           d="m 144.64644,-118.8555 c 0,0 -3.06549,17.2234 -17.89844,18.46044 22.05166,3.806272 23.33719,-11.41883 23.33719,-11.41883 h 13.34965 c -5.24098,12.370397 -17.10735,10.56242 -17.10735,10.56242 0,0 23.93049,8.754429 28.28147,-14.55901 h -21.75497 l 1.23609,-3.18775 h 25.06767 l 4.22738,-4.06796 h -17.28038 l 3.49811,-3.36618 H 157.7983 l -2.99749,2.88445 h -14.28156 l -3.86629,4.9173 z"
           id="path2483"
           inkscape:connector-curvature="0"
           sodipodi:nodetypes="ccccccccccccccccc" />
        <path
           style="display:inline;fill:#edc139;fill-opacity:1;stroke:#000000;stroke-width:0.84003836;stroke-linecap:butt;stroke-linejoin:miter;stroke-miterlimit:4;stroke-dasharray:none;stroke-opacity:1"
           d="m 191.17889,-125.66189 -2.65764,4.44067 h 14.40473 c 0,0 -0.89642,3.21144 -1.86989,4.73358 h -14.60816 l -0.19816,4.56725 h 10.85997 c -6.29338,10.40159 -20.07929,10.19353 -20.07929,10.19353 l -0.0109,3.263768 c 14.24686,1.529965 26.04636,-8.628048 26.04636,-8.628048 4.75478,9.150907 14.82304,6.99807 14.82304,6.99807 -7.50094,-3.43035 -8.41142,-7.80619 -7.42993,-11.82732 h 13.76309 v -4.56725 h -11.97807 c 0.84285,-1.70517 2.0091,-4.35971 2.0091,-4.35971 h 14.45214 l 2.88858,-4.81454 z"
           id="path2486"
           inkscape:connector-curvature="0"
           sodipodi:nodetypes="ccccccccccccccccccc" />
        <path
           style="display:inline;fill:#edc139;fill-opacity:1;stroke:#000000;stroke-width:0.84003836;stroke-linecap:butt;stroke-linejoin:miter;stroke-miterlimit:4;stroke-dasharray:none;stroke-opacity:1"
           d="m 133.52421,-126.27791 -39.414731,0.0633 -7.259323,12.09888 h 39.377234 z m -9.66613,1.79864 -1.89283,3.07403 h -20.13602 l 1.81636,-3.02766 z m -23.48118,5.49528 h 20.13603 l -1.41411,2.4367 H 98.914625 Z m 3.33904,5.38415 -1.42478,2.39696 -9.313673,0.0681 1.633349,-1.90525 -5.929034,-0.0264 c -1.574419,3.07487 -6.387412,7.06932 -6.387412,7.06932 0,0 6.100623,-0.0774 8.511733,-2.72152 l 2.520658,-0.006 h 7.491399 l -1.223654,2.0599 -8.729243,0.002 -1.483708,2.4735 h 8.741501 l -1.116591,1.87886 -16.924677,-0.005 -1.957837,3.263178 h 43.515469 l 1.86455,-3.250658 -13.68354,-0.004 1.1296,-1.88254 h 9.03899 l 1.48674,-2.47939 -9.03899,0.002 1.23435,-2.05696 h 12.88435 l 1.46149,-2.48306 -12.85754,0.002 1.39801,-2.32999 z"
           id="path2491"
           inkscape:connector-curvature="0"
           sodipodi:nodetypes="cccccccccccccccccccccccccccccccccccccccccccc" />
        <path
           style="display:inline;fill:#edc139;fill-opacity:1;stroke:#000000;stroke-width:0.84003836;stroke-linecap:butt;stroke-linejoin:miter;stroke-miterlimit:4;stroke-dasharray:none;stroke-opacity:1"
           clip-path="none"
           d="m 270.09218,-126.72968 -9.24052,0.0199 c -0.13893,0.78627 -0.30947,1.54961 -0.50453,2.30021 h -10.00725 l -2.39953,0.0556 c 0.52033,-0.56592 1.34561,-1.41158 1.80758,-1.77183 l -7.55211,-0.1311 c -1.23606,3.85386 -4.61705,5.75813 -10.69853,8.61284 0,0 4.79706,-0.20283 6.18949,-0.88591 -1.13718,2.33134 -9.49995,17.04649 -10.68657,18.854478 l 6.13385,-0.07152 c 0,0 7.12958,-14.231138 12.88748,-22.072378 l 2.81266,0.004 10.86538,0.12316 c -0.42277,0.97973 -0.99112,2.01458 -1.45403,2.96761 h -11.01631 l -5.73262,9.38354 h 10.06685 c -1.13205,1.16962 -2.28643,2.23472 -3.42448,3.19009 -1.81574,-0.65309 -3.79337,-1.3804 -6.01469,-2.20883 0.67001,1.32738 2.11348,2.62936 3.99258,3.8138 -4.47073,3.3686 -8.18775,5.001644 -8.18775,5.001644 0,0 4.97438,0.910909 11.93798,-3.039114 4.44473,1.96928 9.76792,3.267643 13.44366,3.170214 3.18757,-0.08447 4.47725,-3.563514 4.47725,-3.563514 -4.22973,1.1832 -7.99007,0.72511 -14.92548,-1.54141 1.75378,-1.27198 3.59216,-2.8477 5.48233,-4.82288 h 12.20417 l 5.62934,-9.38354 h -10.59125 c 0.60083,-0.94395 1.19979,-1.92981 1.79962,-2.96761 h 9.93181 l 1.6288,-2.71733 h -10.05493 c 0.4015,-0.7529 0.80041,-1.52142 1.19975,-2.32007 z m -20.44753,11.33811 7.41091,0.0596 -2.55523,3.47612 h -7.0583 z m 20.26282,0 -2.50514,3.53571 h -6.39572 l 2.31608,-3.40858 z"
           id="path2529"
           inkscape:connector-curvature="0"
           sodipodi:nodetypes="cccccccccccccccccccccccccccccccccccccccccccccc" />
        <path
           style="display:inline;fill:#ffffff;stroke:#000000;stroke-width:0.42001918;stroke-linecap:butt;stroke-linejoin:miter;stroke-miterlimit:4;stroke-dasharray:none;stroke-opacity:1"
           d="m 201.50875,-126.13625 c -1.79505,-12.24845 -2.43257,-10.74718 -1.6695,-14.91946 0.24605,-1.34454 -0.97929,-1.76875 -2.83495,-2.88078 -7.63435,-4.57495 -20.20718,-14.17676 -20.20718,-14.17676 -1.25861,5.18103 12.2619,16.17667 12.2619,16.17667 -0.17478,0.57193 -7.80499,-5.63157 -8.81887,-7.6838 -0.45451,10.05927 11.5877,15.10604 11.5877,15.10604 -0.69926,0.60557 -7.88898,-4.03122 -7.88898,-4.03122 4.88285,11.30822 12.12931,6.52034 13.50197,12.41892 1.00202,0.009 3.16659,-0.0597 4.06791,-0.01 z"
           id="path2561"
           inkscape:connector-curvature="0"
           sodipodi:nodetypes="csscccccccc" />
      </g>
    </g>
  </g>
</svg>
