<?xml version="1.0" encoding="UTF-8" standalone="no"?>
<!-- Created with Inkscape (http://www.inkscape.org/) -->

<svg
   xmlns:dc="http://purl.org/dc/elements/1.1/"
   xmlns:cc="http://creativecommons.org/ns#"
   xmlns:rdf="http://www.w3.org/1999/02/22-rdf-syntax-ns#"
   xmlns:svg="http://www.w3.org/2000/svg"
   xmlns="http://www.w3.org/2000/svg"
   xmlns:sodipodi="http://sodipodi.sourceforge.net/DTD/sodipodi-0.dtd"
   xmlns:inkscape="http://www.inkscape.org/namespaces/inkscape"
   version="1.1"
   id="svg2"
   width="800"
   height="310"
   viewBox="0 0 799.99999 309.99999"
   sodipodi:docname="82443.Angel-Links.svg"
   inkscape:version="0.92.4 5da689c313, 2019-01-14"
   inkscape:export-xdpi="182.58563"
   inkscape:export-ydpi="182.58563">
  <metadata
     id="metadata8">
    <rdf:RDF>
      <cc:Work
         rdf:about="">
        <dc:format>image/svg+xml</dc:format>
        <dc:type
           rdf:resource="http://purl.org/dc/dcmitype/StillImage" />
        <dc:title></dc:title>
      </cc:Work>
    </rdf:RDF>
  </metadata>
  <defs
     id="defs6">
    <filter
       style="color-interpolation-filters:sRGB;"
       inkscape:label="Blur"
       id="filter1269">
      <feGaussianBlur
         stdDeviation="1 1"
         result="blur"
         id="feGaussianBlur1267" />
    </filter>
  </defs>
  <sodipodi:namedview
     pagecolor="#ffffff"
     bordercolor="#666666"
     borderopacity="1"
     objecttolerance="10"
     gridtolerance="10"
     guidetolerance="10"
     inkscape:pageopacity="0"
     inkscape:pageshadow="2"
     inkscape:window-width="1920"
     inkscape:window-height="1141"
     id="namedview4"
     showgrid="true"
     inkscape:snap-others="true"
     inkscape:snap-nodes="true"
     inkscape:zoom="2.1957526"
     inkscape:cx="403.20562"
     inkscape:cy="52.661638"
     inkscape:window-x="0"
     inkscape:window-y="33"
     inkscape:window-maximized="1"
     inkscape:current-layer="layer2"
     inkscape:snap-bbox="true"
     inkscape:pagecheckerboard="true"
     showguides="false"
     inkscape:snap-page="false"
     inkscape:snap-grids="false"
     inkscape:snap-to-guides="false">
    <inkscape:grid
       type="xygrid"
       id="grid821" />
  </sodipodi:namedview>
  <g
     inkscape:groupmode="layer"
     id="layer1"
     inkscape:label="Shadow"
     style="display:inline">
    <path
       sodipodi:nodetypes="sccscccccssscccccccccccccccsscccscccccccccscccccccsccccscscccccsccccccccccccccscscscccssccccccccccccccscccccccccccccccccccccc"
       inkscape:connector-curvature="0"
       id="path1062"
       d="m 520.33795,36.967344 c -36.17123,-0.201229 -70.69319,18.105458 -71.7174,50.704598 0.68018,38.174188 35.71492,39.146438 35.71492,39.146438 -75.34646,-97.185225 121.51826,-112.886708 104.64398,-11.54303 -4.19034,25.1663 -24.32887,47.2527 -55.83105,51.77529 l 27.60341,-64.09392 c 5.61425,-11.228502 16.37437,-14.970758 16.37437,-14.970758 l -34.94724,-4.75 L 489,206.59244 c 0,0 13.74534,-7.17442 21.0661,-7.56862 53.52373,-2.88205 92.39105,-42.09721 93.25985,-83.90359 1.12062,-53.92286 -41.99397,-77.92484 -82.988,-78.152886 z M 303.06331,80.895943 c 21.58651,15.286139 16.75354,21.959197 17.92934,27.270467 l -1.01393,0.0795 h -95.93847 l -7.11271,11.46736 h 36.27864 l -25.45067,53.41348 c -2.26129,4.36664 -4.43377,5.49754 -8.91738,5.6145 l -34.49668,0.0795 -7.18839,12.45104 h 116.36105 l 6.11012,-10.58205 h -6.04959 c 4.69393,-9.77015 16.74414,-11.74866 27.17588,-15.32262 14.67008,-6.15394 26.94794,-16.86398 36.33162,-29.60479 1.28969,1.19107 5.72637,5.87932 7.16946,16.00739 2.96508,20.80967 24.42372,11.59338 23.70654,0 -0.98084,-15.85545 -26.01618,-16.53647 -30.49766,-16.53328 4.83954,-6.65544 8.88906,-13.84793 12.08404,-21.22844 3.21316,2.74985 7.87435,7.63799 8.74334,13.51038 3.80172,25.69036 27.75179,12.35795 24.95128,-0.69992 -2.88984,-13.47432 -23.82316,-15.13732 -32.69581,-15.24316 3.9276,-9.6903 6.40909,-19.625782 7.21867,-29.022165 -16.01428,23.429025 -29.63225,65.322285 -91.86002,58.002715 l 7.28675,40.13389 h -39.9258 c 7.49866,-16.75899 19.50144,-43.57291 22.49587,-50.27709 0,0 4.28486,-9.71234 16.01118,-9.7762 l 22.36345,0.62425 7.44943,-11.45979 c 8.41088,19.23313 25.77132,7.80364 25.6701,-1.2296 -0.27519,-24.56093 -44.18965,-27.675287 -44.18965,-27.675287 z m 110.00122,18.3947 c 6.66693,4.522597 7.78376,6.770467 8.10774,10.722047 0.7675,9.36113 12.84486,7.44904 12.82937,0.70371 -0.0229,-9.59107 -20.93711,-11.425757 -20.93711,-11.425757 z m -13.06016,3.628247 c 0,0 7.34934,4.27634 8.61471,11.14956 2.16565,11.76339 13.71535,6.38993 12.8672,-0.11728 -1.41316,-10.84249 -21.48191,-11.03228 -21.48191,-11.03228 z m 132.19818,4.94107 -22.77204,0.0568 c 0,0 -23.57733,60.00021 -32.41963,74.2144 -8.84228,14.2142 -33.63406,23.92976 -33.63406,23.92976 0,0 44.3288,9.88843 61.33617,-31.42485 27.48956,-66.77607 27.48956,-66.77606 27.48956,-66.77606 z M 428.59901,125.4488 c -41.02204,55.02688 -66.71616,43.44967 -82.37512,43.89077 l 3.30665,35.83978 c 0,0 4.45815,-7.39727 14.66809,-9.70432 58.60379,-13.24221 64.40038,-70.02622 64.40038,-70.02623 z m 1.61928,12.75371 -4.52114,10.29075 h 18.45525 l -6.39387,16.29871 c -5.39119,13.74586 -18.06174,12.10676 -26.95646,12.10676 l -6.14039,10.54422 63.76478,0.16648 7.33213,-11.19875 -21.99267,0.15512 c 11.52224,-28.73396 8.58616,-28.2259 26.88835,-27.75852 l 5.70908,-10.60476 z m -22.61315,62.53517 c 0,0 -16.3142,40.23845 -27.44829,63.00431 -7.32536,14.97818 -27.09043,28.89615 -44.91227,29.00703 -2.37817,0.0155 -40.176,-0.30962 -41.11378,-34.30753 -0.38333,-13.89668 12.86743,-35.83577 40.54628,-33.63029 -54.91661,-16.76168 -60.78382,25.5451 -59.72792,33.60759 8.61878,65.81072 106.58208,56.3779 129.22447,6.25768 l 21.24736,-47.03094 c 0.86487,-1.91447 1.78102,-3.5699 2.71644,-5.06971 2.04994,1.30864 7.9215,6.08156 8.28936,18.29633 0.65461,21.7373 27.0036,16.30078 24.26269,0 -3.10623,-18.47336 -27.36727,-18.88214 -32.2645,-18.77682 6.49957,-10.08964 14.07685,-11.00967 16.26843,-11.05119 z m 37.08827,0.30646 0.65452,0.004 c 0,0 -0.2554,-0.0114 -0.65452,-0.004 z m -77.11244,1.63819 c -19.30774,43.20725 -21.35746,54.21267 -37.01642,55.53596 l 35.43117,0.31401 c 13.56779,-33.0617 18.60633,-55.69401 31.39433,-55.84997 z M 487,208.4026 c 0,0 -13.07696,68.12318 -78.13879,62.16835 l -2.42892,33.52435 c 0,0 4.43843,-8.70352 14.99724,-9.92752 C 462.334,289.42608 480.34761,257.75086 487,208.4026 Z m 53.47676,5.43686 -34.62154,0.15516 c 0,0 -2.80743,26.04284 -34.62151,51.15104 34.6212,1.09167 48.50267,-30.10042 48.50267,-30.10042 h 10.44586 c 0,0 -8.10755,42.57795 -59.10366,60.98021 C 532.83533,300.39208 545.61555,266.04389 557,240 c 6,-13 11.23528,-16.64913 11.23528,-16.64913 h -40.23604 z m 30.72091,8.88711 -8.418,10.37776 29.51022,-0.24214 c -20.17774,35.35205 -39.02447,51.61996 -74.5814,65.81157 48.81278,4.67853 70.33414,-21.51834 75.0127,-27.4445 3.11902,18.71414 8.03136,22.69113 10.99445,27.2137 l 24.87181,-24.0962 -6.54899,-0.15516 c -6.4917,-0.15458 -15.91209,-5.69924 -13.87736,-18.48171 1.45777,-9.158 17.93265,-31.8917 26.50999,-32.98336 z"
       style="fill:#000000;fill-opacity:1;stroke:#000000;stroke-width:3.5;stroke-linecap:butt;stroke-linejoin:miter;stroke-miterlimit:4;stroke-dasharray:none;stroke-opacity:1;paint-order:normal;filter:url(#filter1269)" />
  </g>
  <g
     inkscape:groupmode="layer"
     id="layer2"
     inkscape:label="Logo"
     style="display:inline"
     transform="translate(-0.87867877,160.26013)">
    <g
       id="g1051"
       transform="matrix(0.98067973,0,0,0.98067973,161.89086,2.1205768)">
      <path
         sodipodi:nodetypes="sccsccccccccscccccccccccccccsscccscccccccccscccccccsccccscscccccsccccccccccccccccscscccsscccccccccccccsccccccccccccccccccccccccc"
         inkscape:connector-curvature="0"
         id="path1387"
         d="m 361.99898,-132.15819 c -36.88384,-0.20519 -72.08591,18.46215 -73.1303,51.703523 0.69358,38.926251 36.22312,39.938774 36.22312,39.938774 -76.83086,-99.099857 124.1077,-115.131797 106.90098,-11.791562 -4.27289,25.662098 -24.80817,48.1836206 -56.93097,52.79531154 L 403.20903,-64.868766 c 5.72485,-11.449713 16.69696,-15.265695 16.69696,-15.265695 H 385.39711 L 331.39037,42.439231 h 2.0394 c 0,0 12.10231,-9.025609 18.09499,-9.348293 54.5782,-2.93883 94.21125,-42.9265643 95.09716,-85.556567 1.14269,-54.985181 -42.82129,-79.460021 -84.62294,-79.692561 z m -221.75056,44.815151 c 22.01178,15.58729 17.0836,22.391804 18.28256,27.807719 l -1.03391,0.08103 H 59.668535 L 52.41569,-47.761007 H 89.409058 L 63.456989,6.7047595 c -2.305845,4.4526655 -4.521127,5.6058495 -9.093062,5.7251175 l -35.176298,0.08102 -7.330004,12.696335 H 130.51109 l 6.23049,-10.790533 h -6.16877 c 4.7864,-9.9626317 17.07402,-11.980112 27.71127,-15.624483 14.95909,-6.2751774 27.47884,-17.19622 37.04738,-30.188038 1.31511,1.214542 5.83919,5.995153 7.31071,16.322759 3.02349,21.2196352 24.90488,11.8217759 24.17358,0 -1.00017,-16.167819 -26.52873,-16.862261 -31.0985,-16.859005 4.93489,-6.78656 9.06419,-14.120745 12.32212,-21.646659 3.27646,2.804021 8.02948,7.788468 8.91558,13.77655 3.87662,26.196479 28.29853,12.601408 25.44285,-0.713712 -2.94678,-13.739778 -24.2925,-15.435534 -33.33994,-15.543463 4.00497,-9.881204 6.53535,-20.012424 7.36087,-29.593924 -16.32977,23.890589 -30.21603,66.609192 -93.66974,59.14541 l 7.43031,40.924565 H 89.466927 c 7.646382,-17.0891488 19.885633,-44.431333 22.939053,-51.267587 0,0 4.36928,-9.903689 16.32662,-9.968803 l 22.80402,0.636553 7.59619,-11.685568 c 8.57659,19.612049 26.27905,7.957382 26.17583,-1.253815 -0.28061,-25.044801 -45.06022,-28.220514 -45.06022,-28.220514 z m 112.16833,18.757092 c 6.79828,4.61169 7.93712,6.903846 8.26748,10.933279 0.78262,9.545554 13.09791,7.595787 13.08211,0.717569 -0.0233,-9.780017 -21.34959,-11.650848 -21.34959,-11.650848 z m -13.31745,3.699723 c 0,0 7.49413,4.36059 8.78443,11.369219 2.20831,11.99514 13.98555,6.515816 13.1207,-0.119595 -1.44101,-11.056096 -21.90513,-11.249627 -21.90513,-11.249627 z m 134.80261,5.038412 -23.22068,0.05788 c 0,0 -24.04182,61.1822658 -33.05832,75.676496 -9.01648,14.494229 -34.29668,24.401195 -34.29668,24.401195 0,0 45.20212,10.08324 62.54454,-32.0439503 28.03114,-68.0916147 28.03114,-68.0916077 28.03114,-68.0916077 z M 268.25728,-41.912451 C 226.42707,14.198505 200.22676,2.3932162 184.2593,2.8430059 l 3.37179,36.5458511 c 0,0 4.54598,-7.543 14.95707,-9.895504 59.75834,-13.503088 65.66912,-71.405803 65.66912,-71.405804 z m 1.65118,13.00497 -5.31324,10.493477 h 19.52187 l -6.51984,16.6198166 C 272.09985,12.222475 259.17967,10.551081 250.10972,10.551081 l -6.26135,10.751958 67.03231,0.169753 7.47658,-11.419374 -24.43725,0.158178 c 11.74923,-29.300047 8.7553,-28.781975 27.41806,-28.305386 l 5.82156,-10.813683 z m -23.05865,63.767167 c 0,0 -16.6356,41.031183 -27.98904,64.24555 -7.46968,15.273264 -27.62414,29.465424 -45.79709,29.578494 -2.42502,0.0158 -40.9675,-0.31573 -41.92376,-34.98342 C 130.74905,79.529848 144.26085,57.15854 172.485,59.407472 116.48649,42.31557 110.50369,85.455835 111.58039,93.67716 c 8.78857,67.10725 108.68185,57.4886 131.77031,6.38097 l 21.66595,-47.957496 c 0.88191,-1.952192 1.81611,-3.640234 2.76996,-5.169587 2.09033,1.334416 8.07756,6.201374 8.45267,18.656783 0.6675,22.165547 27.53559,16.62192 24.74068,0 C 297.81254,46.750531 272.78032,46.823653 267.78661,46.931047 273.26742,36.321025 282.434,35.214522 284.66875,35.172175 Z m 37.81894,0.312489 0.66742,0.0039 c 0,0 -0.26043,-0.01162 -0.66742,-0.0039 z m -78.63162,1.67047 C 186.34901,80.90112 184.25891,92.123348 168.29146,93.472708 l 36.12919,0.320201 c 13.83509,-33.713045 18.97289,-56.791237 32.01283,-56.950264 z m 42.0935,69.226085 -2.47678,34.18481 c 0,0 4.52588,-8.87498 15.29271,-10.1231 41.60041,-4.82238 63.60383,-32.519768 70.44381,-82.592705 h -2.0394 c -25.49252,38.748634 -35.77414,61.005855 -81.22034,58.530995 z m 134.2085,-57.849152 -35.30362,0.158216 c 0,0 -2.16614,25.62712 -32.16891,52.158766 35.30327,1.11317 46.32354,-30.693432 46.32354,-30.693432 h 10.65166 c 0,0 -8.26728,43.416772 -60.26806,62.181582 62.97341,4.45265 86.09719,-40.639836 90.17599,-60.014153 3.0591,-12.236411 11.91553,-14.728781 11.91553,-14.728781 L 370.139,57.734744 Z m 31.32613,9.062198 -8.58384,10.582206 30.0916,-0.246906 c -20.57526,36.048524 -39.79329,52.636914 -76.05072,67.108114 49.77443,4.7707 71.71978,-21.94227 76.49051,-27.98518 3.18047,19.08283 8.18959,23.13817 11.21105,27.74983 l 25.36182,-24.57092 -6.67802,-0.15821 c -6.61959,-0.15763 -16.22557,-5.81152 -14.15075,-18.845818 1.48649,-9.33842 18.28593,-32.519988 27.03226,-33.633157 z"
         style="fill:#f21e8c;fill-opacity:1;stroke:#ffffff;stroke-width:3.56895304;stroke-linecap:butt;stroke-linejoin:miter;stroke-miterlimit:4;stroke-dasharray:none;stroke-opacity:1;paint-order:normal" />
      <path
         sodipodi:nodetypes="cssscccccscc"
         inkscape:connector-curvature="0"
         id="path2564"
         d="m 217.32194,-122.68822 c 2.95286,-1.68642 4.44346,-3.25384 5.58169,-5.97178 1.09337,-2.61097 2.88685,-6.43051 4.72938,-8.61693 2.24302,-2.66163 4.4419,-4.72761 7.46621,-5.05929 8.12203,-0.89072 13.6908,-3.50183 29.64781,-9.97063 0.81484,6.73017 -19.11878,14.44395 -21.77349,15.42264 4.95686,-1.43751 7.13676,-2.3139 13.81361,-6.07563 -1.02503,8.67807 -19.38323,12.17448 -19.38323,12.17448 8.01245,-1.5682 9.86834,-2.78315 12.74276,-3.70476 -3.96451,2.75371 -9.11322,6.48021 -13.41498,8.14029 -4.42941,1.70933 -13.79206,3.69626 -13.79206,3.69626 z"
         style="display:inline;fill:#ffffff;stroke:#000000;stroke-width:0.40788037;stroke-linecap:butt;stroke-linejoin:miter;stroke-miterlimit:4;stroke-dasharray:none;stroke-opacity:1" />
      <path
         sodipodi:nodetypes="cscccsccccccccccccc"
         inkscape:connector-curvature="0"
         id="path2483"
         d="m 147.84421,-115.61441 -1.55331,3.0591 c -1.03555,2.03941 -5.50032,14.013912 -16.16303,14.903162 16.69664,2.738449 22.32227,-11.844052 22.32227,-11.844052 h 15.29552 c -1.60063,3.778 -3.38901,6.26888 -5.76404,7.90856 -5.17685,3.57398 -10.80072,3.103833 -10.80072,3.103833 0,0 22.0094,7.548463 26.23463,-15.091203 h -23.13384 l 1.193,-2.0394 h 23.98025 l 2.0394,-4.0788 -13.78325,0 1.54684,-3.0591 h -11.21671 l -1.59436,3.0591 -13.70116,-4e-5 -2.49092,4.07884 z"
         style="display:inline;fill:#edc139;fill-opacity:1;stroke:#000000;stroke-width:0.81576073;stroke-linecap:butt;stroke-linejoin:miter;stroke-miterlimit:4;stroke-dasharray:none;stroke-opacity:1" />
      <path
         sodipodi:nodetypes="ccccccccccccccccccc"
         inkscape:connector-curvature="0"
         id="path2486"
         d="m 192.69667,-122.18875 -2.58083,4.31233 h 13.98842 c 0,0 -0.87051,3.11863 -1.81585,4.59678 h -14.18597 l -0.19244,4.43525 h 10.54611 c -6.11149,10.100979 -19.49898,9.898932 -19.49898,9.898932 l -0.0106,3.169443 c 13.83512,1.485748 25.29361,-8.378695 25.29361,-8.378695 4.61736,8.886443 14.39464,6.795824 14.39464,6.795824 -7.28416,-3.331214 -8.16832,-7.580584 -7.2152,-11.485504 h 13.36533 v -4.43525 h -11.6319 c 0.81849,-1.65589 1.95104,-4.23371 1.95104,-4.23371 h 14.03446 l 2.8051,-4.6754 z"
         style="display:inline;fill:#edc139;fill-opacity:1;stroke:#000000;stroke-width:0.81576073;stroke-linecap:butt;stroke-linejoin:miter;stroke-miterlimit:4;stroke-dasharray:none;stroke-opacity:1" />
      <path
         sodipodi:nodetypes="cccccccccccccccccccccccccccccccccccccccccccc"
         inkscape:connector-curvature="0"
         id="path2491"
         d="m 140.89507,-122.78697 -42.462444,0.0615 -7.049524,11.74922 42.426028,0 z m -11.40548,3.09376 -1.0197,2.0394 h -23.45312 l 1.0197,-2.0394 z m -25.49252,4.0788 h 23.45312 l -1.0197,2.0394 h -23.45312 z m 3.76438,5.13911 -1.3836,2.32768 -9.044501,0.0661 1.586144,-1.85019 -5.757681,-0.0256 c -1.528917,2.98601 -6.202812,6.86501 -6.202812,6.86501 0,0 5.924311,-0.0752 8.265739,-2.64286 l 2.447809,-0.006 h 7.274892 l -1.18829,2.00037 -8.476961,0.002 -1.440828,2.40202 h 8.488869 l -1.08432,1.824556 -16.435547,-0.0049 -1.901254,3.16887 h 42.257841 l 1.81067,-3.156712 -13.28808,-0.0039 1.09695,-1.828134 h 8.77776 l 1.44377,-2.40773 -8.77775,0.002 1.19867,-1.99751 h 12.51199 l 1.41925,-2.4113 -12.48595,0.002 1.35761,-2.26265 z"
         style="display:inline;fill:#edc139;fill-opacity:1;stroke:#000000;stroke-width:0.81576073;stroke-linecap:butt;stroke-linejoin:miter;stroke-miterlimit:4;stroke-dasharray:none;stroke-opacity:1" />
      <path
         sodipodi:nodetypes="cccccccccccccccccccccccccccccccccccccccccccccc"
         inkscape:connector-curvature="0"
         id="path2529"
         d="m 269.32931,-123.22568 -8.97346,0.0193 c -0.13491,0.76355 -0.30053,1.50483 -0.48995,2.23374 h -9.71803 l -2.33018,0.054 c 0.50529,-0.54956 1.30672,-1.37078 1.75534,-1.72062 l -7.33385,-0.12731 c -1.20034,3.74248 -4.48362,5.59171 -10.38934,8.36392 0,0 4.65842,-0.19697 6.01061,-0.86031 -1.10431,2.26397 -9.22539,16.553838 -10.37772,18.309574 l 5.95658,-0.06945 c 0,0 6.92353,-13.819854 12.51502,-21.434474 l 2.73137,0.004 10.55137,0.1196 c -0.41056,0.95142 -0.96248,1.95636 -1.41201,2.88185 h -10.69793 l -5.56695,9.11235 h 9.77592 c -1.09934,1.13581 -2.22036,2.17013 -3.32551,3.09789 -1.76327,-0.63421 -3.68374,-1.3405 -5.84087,-2.14499 0.65065,1.28902 2.0524,2.55337 3.8772,3.70358 -4.34153,3.271246 -7.95112,4.857094 -7.95112,4.857094 0,0 4.83061,0.884583 11.59296,-2.951282 4.31628,1.912367 9.48562,3.173206 13.05513,3.078593 3.09545,-0.08203 4.34786,-3.460525 4.34786,-3.460525 -4.10749,1.149003 -7.75916,0.704153 -14.49413,-1.49687 1.7031,-1.23522 3.48835,-2.7654 5.32389,-4.68349 h 11.85146 l 5.46665,-9.11235 h -10.28516 c 0.58347,-0.91667 1.16512,-1.87404 1.74761,-2.88185 h 9.64478 l 1.58172,-2.63879 h -9.76433 c 0.38989,-0.73114 0.77728,-1.47745 1.16507,-2.25302 z m -19.85658,11.01043 7.19673,0.0579 -2.48138,3.37566 h -6.85431 z m 19.67721,0 -2.43274,3.43353 h -6.21088 l 2.24915,-3.31007 z"
         clip-path="none"
         style="display:inline;fill:#edc139;fill-opacity:1;stroke:#000000;stroke-width:0.81576073;stroke-linecap:butt;stroke-linejoin:miter;stroke-miterlimit:4;stroke-dasharray:none;stroke-opacity:1" />
      <path
         sodipodi:nodetypes="csscccccccc"
         inkscape:connector-curvature="0"
         id="path2561"
         d="m 202.72799,-122.6494 c -1.74317,-11.89446 -2.36227,-10.43658 -1.62125,-14.48828 0.23894,-1.30568 -0.95099,-1.71763 -2.75302,-2.79752 -7.41371,-4.44273 -19.62318,-13.76705 -19.62318,-13.76705 -1.22223,5.0313 11.90752,15.70916 11.90752,15.70916 -0.16972,0.5554 -7.57942,-5.46882 -8.56399,-7.46173 -0.44138,9.76855 11.2528,14.66946 11.2528,14.66946 -0.67905,0.58807 -7.66098,-3.91471 -7.66098,-3.91471 4.74173,10.9814 11.77876,6.33189 13.11175,12.06 0.97307,0.009 3.07508,-0.058 3.95035,-0.01 z"
         style="display:inline;fill:#ffffff;stroke:#000000;stroke-width:0.40788037;stroke-linecap:butt;stroke-linejoin:miter;stroke-miterlimit:4;stroke-dasharray:none;stroke-opacity:1" />
    </g>
  </g>
</svg>
